<svg width="508" height="58" viewBox="0 0 508 58" fill="none" xmlns="http://www.w3.org/2000/svg">
<path d="M23.5 16.5L491.5 16.5" stroke="#EEF0F3" stroke-width="6" stroke-linecap="round"/>
<path d="M23.5 16.5H53.5" stroke="#E40443" stroke-width="6" stroke-linecap="round"/>
<rect x="5.5" y="1.5" width="32" height="32" rx="16" fill="#E40443"/>
<path d="M19.618 21.656C19.122 21.656 18.674 21.544 18.274 21.32C17.878 21.092 17.536 20.778 17.248 20.378C16.96 19.978 16.74 19.516 16.588 18.992C16.436 18.464 16.36 17.9 16.36 17.3C16.36 16.7 16.436 16.136 16.588 15.608C16.74 15.08 16.96 14.618 17.248 14.222C17.536 13.822 17.878 13.51 18.274 13.286C18.674 13.058 19.122 12.944 19.618 12.944C20.106 12.944 20.55 13.058 20.95 13.286C21.35 13.51 21.69 13.822 21.97 14.222C22.254 14.618 22.472 15.08 22.624 15.608C22.776 16.136 22.852 16.7 22.852 17.3C22.852 17.9 22.776 18.464 22.624 18.992C22.472 19.516 22.254 19.978 21.97 20.378C21.69 20.778 21.35 21.092 20.95 21.32C20.55 21.544 20.106 21.656 19.618 21.656ZM19.618 20.408C20.078 20.408 20.46 20.264 20.764 19.976C21.072 19.684 21.302 19.302 21.454 18.83C21.606 18.358 21.682 17.848 21.682 17.3C21.682 16.724 21.602 16.202 21.442 15.734C21.286 15.262 21.054 14.888 20.746 14.612C20.442 14.332 20.066 14.192 19.618 14.192C19.262 14.192 18.952 14.276 18.688 14.444C18.428 14.612 18.212 14.842 18.04 15.134C17.872 15.426 17.744 15.758 17.656 16.13C17.572 16.502 17.53 16.892 17.53 17.3C17.53 17.848 17.608 18.358 17.764 18.83C17.92 19.302 18.152 19.684 18.46 19.976C18.772 20.264 19.158 20.408 19.618 20.408ZM24.689 21.5V14.348H23.687L24.029 13.1H25.937V21.5H24.689Z" fill="white"/>
<path d="M4.854 52.64C4.08867 52.64 3.356 52.5327 2.656 52.318C1.956 52.094 1.40067 51.8093 0.99 51.464L1.62 50.05C2.012 50.358 2.49733 50.6147 3.076 50.82C3.65467 51.0253 4.24733 51.128 4.854 51.128C5.36733 51.128 5.78267 51.072 6.1 50.96C6.41733 50.848 6.65067 50.6987 6.8 50.512C6.94933 50.316 7.024 50.0967 7.024 49.854C7.024 49.5553 6.91667 49.3173 6.702 49.14C6.48733 48.9533 6.20733 48.8087 5.862 48.706C5.526 48.594 5.148 48.4913 4.728 48.398C4.31733 48.3047 3.902 48.1973 3.482 48.076C3.07133 47.9453 2.69333 47.782 2.348 47.586C2.012 47.3807 1.73667 47.11 1.522 46.774C1.30733 46.438 1.2 46.0087 1.2 45.486C1.2 44.954 1.34 44.4687 1.62 44.03C1.90933 43.582 2.34333 43.2273 2.922 42.966C3.51 42.6953 4.252 42.56 5.148 42.56C5.736 42.56 6.31933 42.6347 6.898 42.784C7.47667 42.9333 7.98067 43.148 8.41 43.428L7.836 44.842C7.39733 44.5807 6.94467 44.3893 6.478 44.268C6.01133 44.1373 5.56333 44.072 5.134 44.072C4.63 44.072 4.21933 44.1327 3.902 44.254C3.594 44.3753 3.36533 44.534 3.216 44.73C3.076 44.926 3.006 45.15 3.006 45.402C3.006 45.7007 3.10867 45.9433 3.314 46.13C3.52867 46.3073 3.804 46.4473 4.14 46.55C4.48533 46.6527 4.868 46.7553 5.288 46.858C5.708 46.9513 6.12333 47.0587 6.534 47.18C6.954 47.3013 7.332 47.46 7.668 47.656C8.01333 47.852 8.28867 48.118 8.494 48.454C8.70867 48.79 8.816 49.2147 8.816 49.728C8.816 50.2507 8.67133 50.736 8.382 51.184C8.102 51.6227 7.668 51.9773 7.08 52.248C6.492 52.5093 5.75 52.64 4.854 52.64ZM13.2667 52.598C12.4454 52.598 11.8107 52.388 11.3627 51.968C10.9147 51.5387 10.6907 50.9087 10.6907 50.078V43.372H12.4407V50.036C12.4407 50.3907 12.5294 50.666 12.7067 50.862C12.8934 51.058 13.15 51.156 13.4767 51.156C13.8687 51.156 14.1954 51.0533 14.4567 50.848L14.9467 52.094C14.7414 52.262 14.4894 52.388 14.1907 52.472C13.892 52.556 13.584 52.598 13.2667 52.598ZM9.45869 46.48V45.08H14.4427V46.48H9.45869ZM19.6542 52.598C18.8235 52.598 18.0955 52.4347 17.4702 52.108C16.8542 51.772 16.3735 51.3147 16.0282 50.736C15.6922 50.1573 15.5242 49.4993 15.5242 48.762C15.5242 48.0153 15.6875 47.3573 16.0142 46.788C16.3502 46.2093 16.8075 45.7567 17.3862 45.43C17.9742 45.1033 18.6415 44.94 19.3882 44.94C20.1162 44.94 20.7649 45.0987 21.3342 45.416C21.9035 45.7333 22.3515 46.1813 22.6782 46.76C23.0049 47.3387 23.1682 48.02 23.1682 48.804C23.1682 48.8787 23.1635 48.9627 23.1542 49.056C23.1542 49.1493 23.1495 49.238 23.1402 49.322H16.9102V48.16H22.2162L21.5302 48.524C21.5395 48.0947 21.4509 47.7167 21.2642 47.39C21.0775 47.0633 20.8209 46.8067 20.4942 46.62C20.1769 46.4333 19.8082 46.34 19.3882 46.34C18.9589 46.34 18.5809 46.4333 18.2542 46.62C17.9369 46.8067 17.6849 47.068 17.4982 47.404C17.3209 47.7307 17.2322 48.118 17.2322 48.566V48.846C17.2322 49.294 17.3349 49.6907 17.5402 50.036C17.7455 50.3813 18.0349 50.6473 18.4082 50.834C18.7815 51.0207 19.2109 51.114 19.6962 51.114C20.1162 51.114 20.4942 51.0487 20.8302 50.918C21.1662 50.7873 21.4649 50.582 21.7262 50.302L22.6642 51.38C22.3282 51.772 21.9035 52.0753 21.3902 52.29C20.8862 52.4953 20.3075 52.598 19.6542 52.598ZM28.9932 52.598C28.3865 52.598 27.8312 52.458 27.3272 52.178C26.8325 51.898 26.4358 51.478 26.1372 50.918C25.8478 50.3487 25.7032 49.63 25.7032 48.762C25.7032 47.8847 25.8432 47.166 26.1232 46.606C26.4125 46.046 26.8045 45.6307 27.2992 45.36C27.7938 45.08 28.3585 44.94 28.9932 44.94C29.7305 44.94 30.3792 45.0987 30.9392 45.416C31.5085 45.7333 31.9565 46.1767 32.2832 46.746C32.6192 47.3153 32.7872 47.9873 32.7872 48.762C32.7872 49.5367 32.6192 50.2133 32.2832 50.792C31.9565 51.3613 31.5085 51.8047 30.9392 52.122C30.3792 52.4393 29.7305 52.598 28.9932 52.598ZM24.8492 55.216V45.024H26.5152V46.788L26.4592 48.776L26.5992 50.764V55.216H24.8492ZM28.7972 51.1C29.2172 51.1 29.5905 51.0067 29.9172 50.82C30.2532 50.6333 30.5192 50.3627 30.7152 50.008C30.9112 49.6533 31.0092 49.238 31.0092 48.762C31.0092 48.2767 30.9112 47.8613 30.7152 47.516C30.5192 47.1613 30.2532 46.8907 29.9172 46.704C29.5905 46.5173 29.2172 46.424 28.7972 46.424C28.3772 46.424 27.9992 46.5173 27.6632 46.704C27.3272 46.8907 27.0612 47.1613 26.8652 47.516C26.6692 47.8613 26.5712 48.2767 26.5712 48.762C26.5712 49.238 26.6692 49.6533 26.8652 50.008C27.0612 50.3627 27.3272 50.6333 27.6632 50.82C27.9992 51.0067 28.3772 51.1 28.7972 51.1ZM39.352 52.5V43.4L40.15 44.226H37.28V42.7H41.172V52.5H39.352Z" fill="#1A1C1F"/>
<rect x="237.5" y="1.5" width="32" height="32" rx="16" fill="#EEF0F3"/>
<path d="M250.118 21.656C249.622 21.656 249.174 21.544 248.774 21.32C248.378 21.092 248.036 20.778 247.748 20.378C247.46 19.978 247.24 19.516 247.088 18.992C246.936 18.464 246.86 17.9 246.86 17.3C246.86 16.7 246.936 16.136 247.088 15.608C247.24 15.08 247.46 14.618 247.748 14.222C248.036 13.822 248.378 13.51 248.774 13.286C249.174 13.058 249.622 12.944 250.118 12.944C250.606 12.944 251.05 13.058 251.45 13.286C251.85 13.51 252.19 13.822 252.47 14.222C252.754 14.618 252.972 15.08 253.124 15.608C253.276 16.136 253.352 16.7 253.352 17.3C253.352 17.9 253.276 18.464 253.124 18.992C252.972 19.516 252.754 19.978 252.47 20.378C252.19 20.778 251.85 21.092 251.45 21.32C251.05 21.544 250.606 21.656 250.118 21.656ZM250.118 20.408C250.578 20.408 250.96 20.264 251.264 19.976C251.572 19.684 251.802 19.302 251.954 18.83C252.106 18.358 252.182 17.848 252.182 17.3C252.182 16.724 252.102 16.202 251.942 15.734C251.786 15.262 251.554 14.888 251.246 14.612C250.942 14.332 250.566 14.192 250.118 14.192C249.762 14.192 249.452 14.276 249.188 14.444C248.928 14.612 248.712 14.842 248.54 15.134C248.372 15.426 248.244 15.758 248.156 16.13C248.072 16.502 248.03 16.892 248.03 17.3C248.03 17.848 248.108 18.358 248.264 18.83C248.42 19.302 248.652 19.684 248.96 19.976C249.272 20.264 249.658 20.408 250.118 20.408ZM254.187 21.5V20.39C254.471 20.154 254.797 19.88 255.165 19.568C255.533 19.252 255.907 18.918 256.287 18.566C256.667 18.21 257.017 17.856 257.337 17.504C257.657 17.148 257.915 16.812 258.111 16.496C258.311 16.176 258.411 15.898 258.411 15.662C258.411 15.394 258.345 15.15 258.213 14.93C258.085 14.706 257.911 14.528 257.691 14.396C257.471 14.26 257.227 14.192 256.959 14.192C256.691 14.192 256.445 14.26 256.221 14.396C256.001 14.528 255.823 14.706 255.687 14.93C255.555 15.15 255.489 15.394 255.489 15.662H254.241C254.241 15.154 254.365 14.696 254.613 14.288C254.865 13.876 255.195 13.55 255.603 13.31C256.015 13.066 256.467 12.944 256.959 12.944C257.455 12.944 257.907 13.066 258.315 13.31C258.723 13.554 259.049 13.882 259.293 14.294C259.537 14.702 259.659 15.158 259.659 15.662C259.659 15.942 259.601 16.23 259.485 16.526C259.369 16.822 259.207 17.124 258.999 17.432C258.795 17.74 258.557 18.052 258.285 18.368C258.013 18.684 257.721 19 257.409 19.316C257.097 19.632 256.779 19.944 256.455 20.252H259.731V21.5H254.187Z" fill="#1A232F"/>
<path d="M235.354 53.64C234.589 53.64 233.856 53.5327 233.156 53.318C232.456 53.094 231.901 52.8093 231.49 52.464L232.12 51.05C232.512 51.358 232.997 51.6147 233.576 51.82C234.155 52.0253 234.747 52.128 235.354 52.128C235.867 52.128 236.283 52.072 236.6 51.96C236.917 51.848 237.151 51.6987 237.3 51.512C237.449 51.316 237.524 51.0967 237.524 50.854C237.524 50.5553 237.417 50.3173 237.202 50.14C236.987 49.9533 236.707 49.8087 236.362 49.706C236.026 49.594 235.648 49.4913 235.228 49.398C234.817 49.3047 234.402 49.1973 233.982 49.076C233.571 48.9453 233.193 48.782 232.848 48.586C232.512 48.3807 232.237 48.11 232.022 47.774C231.807 47.438 231.7 47.0087 231.7 46.486C231.7 45.954 231.84 45.4687 232.12 45.03C232.409 44.582 232.843 44.2273 233.422 43.966C234.01 43.6953 234.752 43.56 235.648 43.56C236.236 43.56 236.819 43.6347 237.398 43.784C237.977 43.9333 238.481 44.148 238.91 44.428L238.336 45.842C237.897 45.5807 237.445 45.3893 236.978 45.268C236.511 45.1373 236.063 45.072 235.634 45.072C235.13 45.072 234.719 45.1327 234.402 45.254C234.094 45.3753 233.865 45.534 233.716 45.73C233.576 45.926 233.506 46.15 233.506 46.402C233.506 46.7007 233.609 46.9433 233.814 47.13C234.029 47.3073 234.304 47.4473 234.64 47.55C234.985 47.6527 235.368 47.7553 235.788 47.858C236.208 47.9513 236.623 48.0587 237.034 48.18C237.454 48.3013 237.832 48.46 238.168 48.656C238.513 48.852 238.789 49.118 238.994 49.454C239.209 49.79 239.316 50.2147 239.316 50.728C239.316 51.2507 239.171 51.736 238.882 52.184C238.602 52.6227 238.168 52.9773 237.58 53.248C236.992 53.5093 236.25 53.64 235.354 53.64ZM243.767 53.598C242.945 53.598 242.311 53.388 241.863 52.968C241.415 52.5387 241.191 51.9087 241.191 51.078V44.372H242.941V51.036C242.941 51.3907 243.029 51.666 243.207 51.862C243.393 52.058 243.65 52.156 243.977 52.156C244.369 52.156 244.695 52.0533 244.957 51.848L245.447 53.094C245.241 53.262 244.989 53.388 244.691 53.472C244.392 53.556 244.084 53.598 243.767 53.598ZM239.959 47.48V46.08H244.943V47.48H239.959ZM250.154 53.598C249.324 53.598 248.596 53.4347 247.97 53.108C247.354 52.772 246.874 52.3147 246.528 51.736C246.192 51.1573 246.024 50.4993 246.024 49.762C246.024 49.0153 246.188 48.3573 246.514 47.788C246.85 47.2093 247.308 46.7567 247.886 46.43C248.474 46.1033 249.142 45.94 249.888 45.94C250.616 45.94 251.265 46.0987 251.834 46.416C252.404 46.7333 252.852 47.1813 253.178 47.76C253.505 48.3387 253.668 49.02 253.668 49.804C253.668 49.8787 253.664 49.9627 253.654 50.056C253.654 50.1493 253.65 50.238 253.64 50.322H247.41V49.16H252.716L252.03 49.524C252.04 49.0947 251.951 48.7167 251.764 48.39C251.578 48.0633 251.321 47.8067 250.994 47.62C250.677 47.4333 250.308 47.34 249.888 47.34C249.459 47.34 249.081 47.4333 248.754 47.62C248.437 47.8067 248.185 48.068 247.998 48.404C247.821 48.7307 247.732 49.118 247.732 49.566V49.846C247.732 50.294 247.835 50.6907 248.04 51.036C248.246 51.3813 248.535 51.6473 248.908 51.834C249.282 52.0207 249.711 52.114 250.196 52.114C250.616 52.114 250.994 52.0487 251.33 51.918C251.666 51.7873 251.965 51.582 252.226 51.302L253.164 52.38C252.828 52.772 252.404 53.0753 251.89 53.29C251.386 53.4953 250.808 53.598 250.154 53.598ZM259.493 53.598C258.887 53.598 258.331 53.458 257.827 53.178C257.333 52.898 256.936 52.478 256.637 51.918C256.348 51.3487 256.203 50.63 256.203 49.762C256.203 48.8847 256.343 48.166 256.623 47.606C256.913 47.046 257.305 46.6307 257.799 46.36C258.294 46.08 258.859 45.94 259.493 45.94C260.231 45.94 260.879 46.0987 261.439 46.416C262.009 46.7333 262.457 47.1767 262.783 47.746C263.119 48.3153 263.287 48.9873 263.287 49.762C263.287 50.5367 263.119 51.2133 262.783 51.792C262.457 52.3613 262.009 52.8047 261.439 53.122C260.879 53.4393 260.231 53.598 259.493 53.598ZM255.349 56.216V46.024H257.015V47.788L256.959 49.776L257.099 51.764V56.216H255.349ZM259.297 52.1C259.717 52.1 260.091 52.0067 260.417 51.82C260.753 51.6333 261.019 51.3627 261.215 51.008C261.411 50.6533 261.509 50.238 261.509 49.762C261.509 49.2767 261.411 48.8613 261.215 48.516C261.019 48.1613 260.753 47.8907 260.417 47.704C260.091 47.5173 259.717 47.424 259.297 47.424C258.877 47.424 258.499 47.5173 258.163 47.704C257.827 47.8907 257.561 48.1613 257.365 48.516C257.169 48.8613 257.071 49.2767 257.071 49.762C257.071 50.238 257.169 50.6533 257.365 51.008C257.561 51.3627 257.827 51.6333 258.163 51.82C258.499 52.0067 258.877 52.1 259.297 52.1ZM268.158 53.5V52.282L272.05 48.586C272.377 48.278 272.619 48.0073 272.778 47.774C272.937 47.5407 273.039 47.326 273.086 47.13C273.142 46.9247 273.17 46.7333 273.17 46.556C273.17 46.108 273.016 45.7627 272.708 45.52C272.4 45.268 271.947 45.142 271.35 45.142C270.874 45.142 270.44 45.226 270.048 45.394C269.665 45.562 269.334 45.8187 269.054 46.164L267.78 45.184C268.163 44.6707 268.676 44.274 269.32 43.994C269.973 43.7047 270.701 43.56 271.504 43.56C272.213 43.56 272.829 43.6767 273.352 43.91C273.884 44.134 274.29 44.456 274.57 44.876C274.859 45.296 275.004 45.7953 275.004 46.374C275.004 46.6913 274.962 47.0087 274.878 47.326C274.794 47.634 274.635 47.9607 274.402 48.306C274.169 48.6513 273.828 49.0387 273.38 49.468L270.034 52.646L269.656 51.96H275.382V53.5H268.158Z" fill="#8D98A4"/>
<rect x="469.5" y="1.5" width="32" height="32" rx="16" fill="#EEF0F3"/>
<path d="M482.118 21.656C481.622 21.656 481.174 21.544 480.774 21.32C480.378 21.092 480.036 20.778 479.748 20.378C479.46 19.978 479.24 19.516 479.088 18.992C478.936 18.464 478.86 17.9 478.86 17.3C478.86 16.7 478.936 16.136 479.088 15.608C479.24 15.08 479.46 14.618 479.748 14.222C480.036 13.822 480.378 13.51 480.774 13.286C481.174 13.058 481.622 12.944 482.118 12.944C482.606 12.944 483.05 13.058 483.45 13.286C483.85 13.51 484.19 13.822 484.47 14.222C484.754 14.618 484.972 15.08 485.124 15.608C485.276 16.136 485.352 16.7 485.352 17.3C485.352 17.9 485.276 18.464 485.124 18.992C484.972 19.516 484.754 19.978 484.47 20.378C484.19 20.778 483.85 21.092 483.45 21.32C483.05 21.544 482.606 21.656 482.118 21.656ZM482.118 20.408C482.578 20.408 482.96 20.264 483.264 19.976C483.572 19.684 483.802 19.302 483.954 18.83C484.106 18.358 484.182 17.848 484.182 17.3C484.182 16.724 484.102 16.202 483.942 15.734C483.786 15.262 483.554 14.888 483.246 14.612C482.942 14.332 482.566 14.192 482.118 14.192C481.762 14.192 481.452 14.276 481.188 14.444C480.928 14.612 480.712 14.842 480.54 15.134C480.372 15.426 480.244 15.758 480.156 16.13C480.072 16.502 480.03 16.892 480.03 17.3C480.03 17.848 480.108 18.358 480.264 18.83C480.42 19.302 480.652 19.684 480.96 19.976C481.272 20.264 481.658 20.408 482.118 20.408ZM488.731 21.656C488.223 21.656 487.767 21.538 487.363 21.302C486.963 21.066 486.647 20.75 486.415 20.354C486.183 19.958 486.067 19.518 486.067 19.034H487.315C487.315 19.286 487.375 19.516 487.495 19.724C487.615 19.932 487.781 20.098 487.993 20.222C488.205 20.346 488.451 20.408 488.731 20.408C488.983 20.408 489.217 20.346 489.433 20.222C489.649 20.098 489.823 19.932 489.955 19.724C490.087 19.516 490.153 19.286 490.153 19.034C490.153 18.714 490.069 18.446 489.901 18.23C489.733 18.014 489.499 17.854 489.199 17.75C488.903 17.642 488.561 17.588 488.173 17.588V16.604C488.701 16.604 489.123 16.5 489.439 16.292C489.755 16.084 489.913 15.774 489.913 15.362C489.913 15.146 489.855 14.95 489.739 14.774C489.627 14.594 489.477 14.452 489.289 14.348C489.105 14.24 488.907 14.186 488.695 14.186C488.475 14.186 488.263 14.24 488.059 14.348C487.859 14.452 487.695 14.594 487.567 14.774C487.439 14.95 487.375 15.146 487.375 15.362H486.127C486.127 15.03 486.195 14.718 486.331 14.426C486.471 14.13 486.659 13.872 486.895 13.652C487.135 13.428 487.407 13.254 487.711 13.13C488.019 13.002 488.341 12.938 488.677 12.938C489.117 12.938 489.525 13.048 489.901 13.268C490.281 13.484 490.585 13.776 490.813 14.144C491.045 14.508 491.161 14.914 491.161 15.362C491.161 15.718 491.073 16.056 490.897 16.376C490.725 16.692 490.485 16.916 490.177 17.048C490.445 17.144 490.669 17.296 490.849 17.504C491.033 17.708 491.171 17.944 491.263 18.212C491.355 18.476 491.401 18.75 491.401 19.034C491.401 19.514 491.279 19.954 491.035 20.354C490.791 20.75 490.465 21.066 490.057 21.302C489.653 21.538 489.211 21.656 488.731 21.656Z" fill="#1A232F"/>
<path d="M467.446 53.64C466.68 53.64 465.948 53.5327 465.248 53.318C464.548 53.094 463.992 52.8093 463.582 52.464L464.212 51.05C464.604 51.358 465.089 51.6147 465.668 51.82C466.246 52.0253 466.839 52.128 467.446 52.128C467.959 52.128 468.374 52.072 468.692 51.96C469.009 51.848 469.242 51.6987 469.392 51.512C469.541 51.316 469.616 51.0967 469.616 50.854C469.616 50.5553 469.508 50.3173 469.294 50.14C469.079 49.9533 468.799 49.8087 468.454 49.706C468.118 49.594 467.74 49.4913 467.32 49.398C466.909 49.3047 466.494 49.1973 466.074 49.076C465.663 48.9453 465.285 48.782 464.94 48.586C464.604 48.3807 464.328 48.11 464.114 47.774C463.899 47.438 463.792 47.0087 463.792 46.486C463.792 45.954 463.932 45.4687 464.212 45.03C464.501 44.582 464.935 44.2273 465.514 43.966C466.102 43.6953 466.844 43.56 467.74 43.56C468.328 43.56 468.911 43.6347 469.49 43.784C470.068 43.9333 470.572 44.148 471.002 44.428L470.428 45.842C469.989 45.5807 469.536 45.3893 469.07 45.268C468.603 45.1373 468.155 45.072 467.726 45.072C467.222 45.072 466.811 45.1327 466.494 45.254C466.186 45.3753 465.957 45.534 465.808 45.73C465.668 45.926 465.598 46.15 465.598 46.402C465.598 46.7007 465.7 46.9433 465.906 47.13C466.12 47.3073 466.396 47.4473 466.732 47.55C467.077 47.6527 467.46 47.7553 467.88 47.858C468.3 47.9513 468.715 48.0587 469.126 48.18C469.546 48.3013 469.924 48.46 470.26 48.656C470.605 48.852 470.88 49.118 471.086 49.454C471.3 49.79 471.408 50.2147 471.408 50.728C471.408 51.2507 471.263 51.736 470.974 52.184C470.694 52.6227 470.26 52.9773 469.672 53.248C469.084 53.5093 468.342 53.64 467.446 53.64ZM475.858 53.598C475.037 53.598 474.402 53.388 473.954 52.968C473.506 52.5387 473.282 51.9087 473.282 51.078V44.372H475.032V51.036C475.032 51.3907 475.121 51.666 475.298 51.862C475.485 52.058 475.742 52.156 476.068 52.156C476.46 52.156 476.787 52.0533 477.048 51.848L477.538 53.094C477.333 53.262 477.081 53.388 476.782 53.472C476.484 53.556 476.176 53.598 475.858 53.598ZM472.05 47.48V46.08H477.034V47.48H472.05ZM482.246 53.598C481.415 53.598 480.687 53.4347 480.062 53.108C479.446 52.772 478.965 52.3147 478.62 51.736C478.284 51.1573 478.116 50.4993 478.116 49.762C478.116 49.0153 478.279 48.3573 478.606 47.788C478.942 47.2093 479.399 46.7567 479.978 46.43C480.566 46.1033 481.233 45.94 481.98 45.94C482.708 45.94 483.357 46.0987 483.926 46.416C484.495 46.7333 484.943 47.1813 485.27 47.76C485.597 48.3387 485.76 49.02 485.76 49.804C485.76 49.8787 485.755 49.9627 485.746 50.056C485.746 50.1493 485.741 50.238 485.732 50.322H479.502V49.16H484.808L484.122 49.524C484.131 49.0947 484.043 48.7167 483.856 48.39C483.669 48.0633 483.413 47.8067 483.086 47.62C482.769 47.4333 482.4 47.34 481.98 47.34C481.551 47.34 481.173 47.4333 480.846 47.62C480.529 47.8067 480.277 48.068 480.09 48.404C479.913 48.7307 479.824 49.118 479.824 49.566V49.846C479.824 50.294 479.927 50.6907 480.132 51.036C480.337 51.3813 480.627 51.6473 481 51.834C481.373 52.0207 481.803 52.114 482.288 52.114C482.708 52.114 483.086 52.0487 483.422 51.918C483.758 51.7873 484.057 51.582 484.318 51.302L485.256 52.38C484.92 52.772 484.495 53.0753 483.982 53.29C483.478 53.4953 482.899 53.598 482.246 53.598ZM491.585 53.598C490.978 53.598 490.423 53.458 489.919 53.178C489.424 52.898 489.028 52.478 488.729 51.918C488.44 51.3487 488.295 50.63 488.295 49.762C488.295 48.8847 488.435 48.166 488.715 47.606C489.004 47.046 489.396 46.6307 489.891 46.36C490.386 46.08 490.95 45.94 491.585 45.94C492.322 45.94 492.971 46.0987 493.531 46.416C494.1 46.7333 494.548 47.1767 494.875 47.746C495.211 48.3153 495.379 48.9873 495.379 49.762C495.379 50.5367 495.211 51.2133 494.875 51.792C494.548 52.3613 494.1 52.8047 493.531 53.122C492.971 53.4393 492.322 53.598 491.585 53.598ZM487.441 56.216V46.024H489.107V47.788L489.051 49.776L489.191 51.764V56.216H487.441ZM491.389 52.1C491.809 52.1 492.182 52.0067 492.509 51.82C492.845 51.6333 493.111 51.3627 493.307 51.008C493.503 50.6533 493.601 50.238 493.601 49.762C493.601 49.2767 493.503 48.8613 493.307 48.516C493.111 48.1613 492.845 47.8907 492.509 47.704C492.182 47.5173 491.809 47.424 491.389 47.424C490.969 47.424 490.591 47.5173 490.255 47.704C489.919 47.8907 489.653 48.1613 489.457 48.516C489.261 48.8613 489.163 49.2767 489.163 49.762C489.163 50.238 489.261 50.6533 489.457 51.008C489.653 51.3627 489.919 51.6333 490.255 51.82C490.591 52.0067 490.969 52.1 491.389 52.1ZM503.456 53.64C502.765 53.64 502.088 53.542 501.426 53.346C500.772 53.1407 500.222 52.8607 499.774 52.506L500.558 51.092C500.912 51.3813 501.342 51.6147 501.846 51.792C502.35 51.9693 502.877 52.058 503.428 52.058C504.081 52.058 504.59 51.9273 504.954 51.666C505.318 51.3953 505.5 51.0313 505.5 50.574C505.5 50.126 505.332 49.7713 504.996 49.51C504.66 49.2487 504.118 49.118 503.372 49.118H502.476V47.872L505.276 44.54L505.514 45.226H500.25V43.7H506.928V44.918L504.128 48.25L503.176 47.69H503.722C504.926 47.69 505.826 47.9607 506.424 48.502C507.03 49.034 507.334 49.72 507.334 50.56C507.334 51.1107 507.194 51.6193 506.914 52.086C506.634 52.5527 506.204 52.9307 505.626 53.22C505.056 53.5 504.333 53.64 503.456 53.64Z" fill="#8D98A4"/>
</svg>
